<svg width="50" height="36" viewBox="0 0 50 36" fill="none" xmlns="http://www.w3.org/2000/svg">
<path d="M10.5277 0.845982C5.75421 1.4452 1.79328 5.11161 0.828434 9.85458C0.574527 11.1038 0.554215 13.1249 0.777652 14.3132C1.1839 16.4663 2.20968 18.4468 3.71281 20.021C5.22609 21.585 6.73937 22.4991 8.85187 23.1085L9.66437 23.3421L8.91281 24.8655C7.85656 26.9882 6.53625 28.9585 4.94171 30.7968C4.29171 31.5483 4.07843 32.0358 4.07843 32.7874C4.07843 33.996 4.80968 34.9202 5.97765 35.1741C6.63781 35.3265 7.13546 35.2249 8.8214 34.6054C16.1542 31.8835 21.0495 26.3179 22.8066 18.7007C23.355 16.2936 23.6089 12.5968 23.3448 10.8397C22.9487 8.29051 21.8722 6.08661 20.1558 4.28895C19.0995 3.17176 18.2566 2.55223 16.9261 1.90223C14.8644 0.896763 12.8433 0.561607 10.5277 0.845982Z" fill="#E9004F"/>
<path d="M36.4972 0.835808C30.0683 1.73971 25.7011 7.55924 26.6761 13.9374C27.3363 18.2842 30.5863 21.9811 34.7402 23.0881C35.187 23.21 35.5628 23.3421 35.5628 23.3725C35.5628 23.403 35.2683 24.0327 34.9128 24.7741C33.9175 26.8256 32.6886 28.6741 30.962 30.7358C30.18 31.6803 29.9261 32.2999 30.0074 33.0413C30.1597 34.3311 31.1245 35.1944 32.4144 35.2046C34.1003 35.2147 38.6605 33.0413 41.1995 31.0202C46.4706 26.8256 49.3753 20.3561 49.3753 12.8405C49.3753 10.8499 49.162 9.63112 48.5527 8.10768C46.8058 3.74049 42.9261 0.93737 38.4066 0.785027C37.7058 0.764713 36.8527 0.785027 36.4972 0.835808Z" fill="#E9004F"/>
</svg>
